#!OML:ASF F:\VICON\USERDATA\INSTALL\rory3\rory3.ASF
:FULLY-SPECIFIED
:DEGREES
54
root 0.4277556588390201 17.752632903032364 12.553629030809955 -2.355975011198242 -4.9570666393993115 -4.5126113204783165
lfemur -23.16391072402991 -3.1183784979204843 -16.018181260159313
ltibia 22.816423713565513
lfoot -1.2407686764696546 -2.5136712702801134
ltoes -6.611602737230218
rfemur 4.941017625820411 5.048811673301655 29.500721062651504
rtibia 33.74340438341638
rfoot -4.300584561427744 -5.6627905009819495
rtoes 0.2678706921756202
lowerback 8.89332541807448 2.633235288937783 4.211907268943874
upperback 0.11843426403515422 4.111437923497383 1.5217484429637302
thorax -4.80144270010948 1.8760042298044763 -2.3131709226699884
lowerneck -16.631137549653815 -2.7837029245166844 -2.1352249295961108
upperneck 21.241405098276825 -3.7548362412404646 0.9987463159046368
head 9.474201960799913 -1.8214557815938657 0.1384942784159597
lclavicle -1.9576396117802193e-15 8.913829860816046e-16
lhumerus -35.96578073667034 7.003828814407157 80.63413233559857
lradius 22.726416664899
lwrist 2.9333001662342753
lhand -26.89918298616224 22.90771941370707
lfingers 7.12502
lthumb -0.25988586369029626 53.03812119778907
rclavicle -1.9512238583527605e-15 9.086303850712626e-16
rhumerus -26.562778469101406 -16.175397667813684 -80.6663986788589
rradius 28.932067475593982
rwrist 3.5976539316853673
rhand -17.39694635508907 22.781024097345636
rfingers 7.12502
rthumb 8.873937435125239 -7.077571471835848
55
root 0.5063284200588221 17.806239732663617 13.218638632502943 -2.8889848216038665 -5.112795883299956 -3.1856903397811873
lfemur -20.672415985745843 -2.257901650452313 -17.964224595552807
ltibia 26.99949665172195
lfoot -1.0580592741564026 -2.5421614203425467
ltoes -7.152690140049886
rfemur 1.9247676950008454 4.136178978981021 27.485451834663042
rtibia 41.41379919312448
rfoot -2.1244045995470815 -5.082026491731678
rtoes 4.015332848260951
lowerback 9.097495465734436 2.5743673091604773 3.084616726790117
upperback 0.1204913075939627 4.038209841304042 1.2216854269363844
thorax -4.851260482528794 1.8350116932797969 -2.111789383862518
lowerneck -16.522405842122513 -2.8150718960946026 -2.1490421816571135
upperneck 21.121230377344855 -3.7885182411970866 1.077002849563132
head 9.458202868429115 -1.834836900830435 0.1592447786432357
lclavicle -1.9576405369298554e-15 8.913835386303665e-16
lhumerus -35.495951657532544 6.344881291119491 80.84561159788471
lradius 21.787314948268893
lwrist 2.522354737173319
lhand -26.908541261642654 22.880839935046218
lfingers 7.12502
lthumb -0.27323070996583204 52.968756302981035
rclavicle -1.9512242359966183e-15 9.086300309485616e-16
rhumerus -27.07015123407291 -16.85612398694581 -80.56735981003845
rradius 28.447967809735374
rwrist 4.395639980552135
rhand -17.34303074253332 22.659247955090084
rfingers 7.12502
rthumb 8.932382041087223 -7.096679500155064
56
root 0.5702758902948062 17.859298245600137 13.884084017560566 -3.292213421959599 -5.510843398742137 -1.8562475259385347
lfemur -17.544921899378554 -1.9526534849425219 -20.236998073243363
ltibia 29.164450706337153
lfoot -1.4094343954198383 -2.3492070675828796
ltoes -7.425686034426457
rfemur -2.1149814335507156 3.500024604765661 25.482712459313184
rtibia 50.50928042331357
rfoot -0.007599033525803378 -4.877541159613704
rtoes 7.623008281049172
lowerback 9.340945606854232 2.424208136207529 1.926115485064593
upperback 0.16638074799293265 3.8617247450646537 0.90642557623456
thorax -4.91684751914007 1.7722693252034893 -1.8332635756969498
lowerneck -16.42777234331149 -2.8557079019894425 -2.1720589091128892
upperneck 21.003740347748703 -3.8217468497065927 1.1509568007772384
head 9.45149864078869 -1.841704225661982 0.17514372344560586
lclavicle -1.957640387377088e-15 8.913824538113803e-16
lhumerus -34.84693414054209 5.480418358683411 81.13366018495937
lradius 20.96353074636629
lwrist 2.206733825903403
lhand -26.916840125031595 22.88532024679639
lfingers 7.12502
lthumb -0.2958676406902355 52.91796311446592
rclavicle -1.9512244343467405e-15 9.08629833002744e-16
rhumerus -27.323521795489327 -17.193087414661857 -80.48758614356204
rradius 27.749996040498214
rwrist 5.188258505278762
rhand -17.289193040301015 22.586239793108245
rfingers 7.12502
rthumb 8.98358899960047 -7.06958029511122
57
root 0.6148540110005165 17.90232291584943 14.509437190666826 -3.612736827594353 -5.642358427147804 -0.7718600314749138
lfemur -14.345568517561642 -2.0659845809718878 -22.265091384060074
ltibia 29.463454796041077
lfoot -2.0973162350322263 -1.5371980813236459
ltoes -7.540804500654479
rfemur -6.6721363972700924 2.78555118945768 23.624582440250435
rtibia 59.64274230508137
rfoot 1.2111213098956917 -5.342598514463688
rtoes 8.991354751323405
lowerback 9.571835421593805 2.14662102051642 0.8770998752267469
upperback 0.25728813309174575 3.5584965164348534 0.6481054059743085
thorax -4.9941744472478735 1.671954513828715 -1.503080222756576
lowerneck -16.370096306730225 -2.8945423015201976 -2.1919828827402323
upperneck 20.954706979210094 -3.846224740551974 1.2109505949458237
head 9.445735883863827 -1.839968234764576 0.1841934193496129
lclavicle -1.957642022578947e-15 8.913787769038676e-16
lhumerus -34.094843227405846 4.688703878099127 81.35972713566964
lradius 20.336610155106168
lwrist 2.2228158023295586
lhand -26.93267294087664 22.903966585577745
lfingers 7.12502
lthumb -0.3163046553559542 52.90358370909818
rclavicle -1.9512238704191233e-15 9.086303363295364e-16
rhumerus -27.551521652439483 -17.505599388701278 -80.34381119611427
rradius 26.962515087742183
rwrist 5.828518549954511
rhand -17.243324800964206 22.54918683068417
rfingers 7.12502
rthumb 9.010763735809356 -7.046722774247459
